<mxfile host="app.diagrams.net" agent="Mozilla/5.0 (Windows NT 10.0; Win64; x64) AppleWebKit/537.36 (KHTML, like Gecko) Chrome/129.0.0.0 Safari/537.36" version="24.7.16">
  <diagram name="Страница — 1" id="CP2NH7Ibpzrbslw8wKEK">
    <mxGraphModel dx="880" dy="468" grid="1" gridSize="10" guides="1" tooltips="1" connect="1" arrows="1" fold="1" page="1" pageScale="1" pageWidth="827" pageHeight="1169" math="0" shadow="0">
      <root>
        <mxCell id="0" />
        <mxCell id="1" parent="0" />
        <mxCell id="0-6jghP_LX2ULfVq-DQo-3" value="DATABASE" style="rounded=0;whiteSpace=wrap;html=1;" vertex="1" parent="1">
          <mxGeometry x="80" y="240" width="120" height="60" as="geometry" />
        </mxCell>
        <mxCell id="0-6jghP_LX2ULfVq-DQo-4" value="CRM" style="rounded=0;whiteSpace=wrap;html=1;" vertex="1" parent="1">
          <mxGeometry x="80" y="340" width="120" height="60" as="geometry" />
        </mxCell>
        <mxCell id="0-6jghP_LX2ULfVq-DQo-6" value="Extract" style="text;html=1;align=center;verticalAlign=middle;whiteSpace=wrap;rounded=0;" vertex="1" parent="1">
          <mxGeometry x="110" y="110" width="60" height="30" as="geometry" />
        </mxCell>
        <mxCell id="0-6jghP_LX2ULfVq-DQo-7" value="Transform" style="text;html=1;align=center;verticalAlign=middle;whiteSpace=wrap;rounded=0;" vertex="1" parent="1">
          <mxGeometry x="375" y="100" width="90" height="50" as="geometry" />
        </mxCell>
        <mxCell id="0-6jghP_LX2ULfVq-DQo-8" value="&lt;br&gt;&lt;ul style=&quot;box-sizing: border-box; margin: 1.5em 0px 2em; list-style: none; padding: 0px; max-width: 100%; color: rgb(41, 41, 41); font-family: GothamPro, sans-serif; font-size: 16px; font-style: normal; font-variant-ligatures: normal; font-variant-caps: normal; font-weight: 400; letter-spacing: normal; orphans: 2; text-align: left; text-indent: 0px; text-transform: none; widows: 2; word-spacing: 0px; -webkit-text-stroke-width: 0px; white-space: normal; background-color: rgb(255, 255, 255); text-decoration-thickness: initial; text-decoration-style: initial; text-decoration-color: initial;&quot;&gt;&lt;li style=&quot;box-sizing: border-box; margin: 0.7em 0px; list-style: none; padding-left: 2em; position: relative; color: rgb(51, 51, 51); font-weight: 400; font-size: 16px; line-height: 25.6px;&quot;&gt;сортировка и фильтрация информации (позволяет убрать иррелевантные элементы);&lt;/li&gt;&lt;li style=&quot;box-sizing: border-box; margin: 0.7em 0px; list-style: none; padding-left: 2em; position: relative; color: rgb(51, 51, 51); font-weight: 400; font-size: 16px; line-height: 25.6px;&quot;&gt;устранение дубликатов и очистка;&lt;/li&gt;&lt;li style=&quot;box-sizing: border-box; margin: 0.7em 0px; list-style: none; padding-left: 2em; position: relative; color: rgb(51, 51, 51); font-weight: 400; font-size: 16px; line-height: 25.6px;&quot;&gt;транслирование и преобразование;&lt;/li&gt;&lt;li style=&quot;box-sizing: border-box; margin: 0.7em 0px; list-style: none; padding-left: 2em; position: relative; color: rgb(51, 51, 51); font-weight: 400; font-size: 16px; line-height: 25.6px;&quot;&gt;удаление или шифрование (повышает уровень безопасности данных)&lt;/li&gt;&lt;/ul&gt;" style="whiteSpace=wrap;html=1;aspect=fixed;" vertex="1" parent="1">
          <mxGeometry x="270" y="160" width="300" height="300" as="geometry" />
        </mxCell>
        <mxCell id="0-6jghP_LX2ULfVq-DQo-10" value="Load" style="text;html=1;align=center;verticalAlign=middle;whiteSpace=wrap;rounded=0;" vertex="1" parent="1">
          <mxGeometry x="680" y="110" width="60" height="30" as="geometry" />
        </mxCell>
        <mxCell id="0-6jghP_LX2ULfVq-DQo-11" value="DATABASE" style="rounded=0;whiteSpace=wrap;html=1;" vertex="1" parent="1">
          <mxGeometry x="650" y="270" width="120" height="60" as="geometry" />
        </mxCell>
      </root>
    </mxGraphModel>
  </diagram>
</mxfile>
